<mxfile host="app.diagrams.net" agent="Mozilla/5.0 (Macintosh; Intel Mac OS X 10_15_7) AppleWebKit/605.1.15 (KHTML, like Gecko) Version/18.2 Safari/605.1.15" version="25.0.3">
  <diagram name="Page-1" id="Wq7MOc8dj08yNdRh3f31">
    <mxGraphModel dx="1058" dy="592" grid="1" gridSize="10" guides="1" tooltips="1" connect="1" arrows="1" fold="1" page="1" pageScale="1" pageWidth="850" pageHeight="1100" math="0" shadow="0">
      <root>
        <mxCell id="0" />
        <mxCell id="1" parent="0" />
        <mxCell id="A4NV4GKSswzCM_kaXUeC-9" value="" style="group" vertex="1" connectable="0" parent="1">
          <mxGeometry x="210" y="720" width="466" height="170" as="geometry" />
        </mxCell>
        <mxCell id="A4NV4GKSswzCM_kaXUeC-2" value="LEVEL&lt;div&gt;SHIFT&lt;/div&gt;" style="whiteSpace=wrap;html=1;aspect=fixed;" vertex="1" parent="A4NV4GKSswzCM_kaXUeC-9">
          <mxGeometry x="240" y="50" width="80" height="80" as="geometry" />
        </mxCell>
        <mxCell id="A4NV4GKSswzCM_kaXUeC-3" value="UltraSonic&lt;div&gt;Sensor&lt;/div&gt;" style="whiteSpace=wrap;html=1;aspect=fixed;" vertex="1" parent="A4NV4GKSswzCM_kaXUeC-9">
          <mxGeometry x="350" y="50" width="80" height="80" as="geometry" />
        </mxCell>
        <mxCell id="A4NV4GKSswzCM_kaXUeC-4" value="Power" style="whiteSpace=wrap;html=1;aspect=fixed;" vertex="1" parent="A4NV4GKSswzCM_kaXUeC-9">
          <mxGeometry x="20" y="50" width="80" height="80" as="geometry" />
        </mxCell>
        <mxCell id="A4NV4GKSswzCM_kaXUeC-7" value="" style="edgeStyle=orthogonalEdgeStyle;rounded=0;orthogonalLoop=1;jettySize=auto;html=1;" edge="1" parent="A4NV4GKSswzCM_kaXUeC-9" source="A4NV4GKSswzCM_kaXUeC-2" target="A4NV4GKSswzCM_kaXUeC-3">
          <mxGeometry relative="1" as="geometry" />
        </mxCell>
        <mxCell id="A4NV4GKSswzCM_kaXUeC-8" value="" style="swimlane;startSize=0;" vertex="1" parent="A4NV4GKSswzCM_kaXUeC-9">
          <mxGeometry width="466" height="170" as="geometry">
            <mxRectangle width="50" height="40" as="alternateBounds" />
          </mxGeometry>
        </mxCell>
        <mxCell id="A4NV4GKSswzCM_kaXUeC-1" value="MKR1310" style="whiteSpace=wrap;html=1;aspect=fixed;" vertex="1" parent="A4NV4GKSswzCM_kaXUeC-8">
          <mxGeometry x="130" y="50" width="80" height="80" as="geometry" />
        </mxCell>
        <mxCell id="A4NV4GKSswzCM_kaXUeC-5" value="" style="edgeStyle=orthogonalEdgeStyle;rounded=0;orthogonalLoop=1;jettySize=auto;html=1;" edge="1" parent="A4NV4GKSswzCM_kaXUeC-9" source="A4NV4GKSswzCM_kaXUeC-4" target="A4NV4GKSswzCM_kaXUeC-1">
          <mxGeometry relative="1" as="geometry" />
        </mxCell>
        <mxCell id="A4NV4GKSswzCM_kaXUeC-6" value="" style="edgeStyle=orthogonalEdgeStyle;rounded=0;orthogonalLoop=1;jettySize=auto;html=1;" edge="1" parent="A4NV4GKSswzCM_kaXUeC-9" source="A4NV4GKSswzCM_kaXUeC-1" target="A4NV4GKSswzCM_kaXUeC-2">
          <mxGeometry relative="1" as="geometry" />
        </mxCell>
        <mxCell id="A4NV4GKSswzCM_kaXUeC-16" value="Gateway" style="whiteSpace=wrap;html=1;aspect=fixed;" vertex="1" parent="1">
          <mxGeometry x="391.5" y="590" width="103" height="103" as="geometry" />
        </mxCell>
        <mxCell id="A4NV4GKSswzCM_kaXUeC-18" value="Cloud" style="rounded=0;whiteSpace=wrap;html=1;" vertex="1" parent="1">
          <mxGeometry x="200" y="500" width="480" height="60" as="geometry" />
        </mxCell>
        <mxCell id="A4NV4GKSswzCM_kaXUeC-19" value="Application" style="whiteSpace=wrap;html=1;aspect=fixed;" vertex="1" parent="1">
          <mxGeometry x="40" y="1007" width="103" height="103" as="geometry" />
        </mxCell>
        <mxCell id="A4NV4GKSswzCM_kaXUeC-20" value="Motor&lt;div&gt;Relay&lt;/div&gt;" style="whiteSpace=wrap;html=1;aspect=fixed;" vertex="1" parent="1">
          <mxGeometry x="710" y="1007" width="103" height="103" as="geometry" />
        </mxCell>
        <mxCell id="A4NV4GKSswzCM_kaXUeC-26" value="LEVEL&lt;div&gt;SHIFT&lt;/div&gt;" style="whiteSpace=wrap;html=1;aspect=fixed;" vertex="1" parent="1">
          <mxGeometry x="450" y="990" width="80" height="80" as="geometry" />
        </mxCell>
        <mxCell id="A4NV4GKSswzCM_kaXUeC-27" value="UltraSonic&lt;div&gt;Sensor&lt;/div&gt;" style="whiteSpace=wrap;html=1;aspect=fixed;" vertex="1" parent="1">
          <mxGeometry x="560" y="990" width="80" height="80" as="geometry" />
        </mxCell>
        <mxCell id="A4NV4GKSswzCM_kaXUeC-28" value="Power" style="whiteSpace=wrap;html=1;aspect=fixed;" vertex="1" parent="1">
          <mxGeometry x="230" y="990" width="80" height="80" as="geometry" />
        </mxCell>
        <mxCell id="A4NV4GKSswzCM_kaXUeC-29" value="" style="swimlane;startSize=0;" vertex="1" parent="1">
          <mxGeometry x="210" y="940" width="466" height="170" as="geometry">
            <mxRectangle width="50" height="40" as="alternateBounds" />
          </mxGeometry>
        </mxCell>
        <mxCell id="A4NV4GKSswzCM_kaXUeC-30" value="MKR1310" style="whiteSpace=wrap;html=1;aspect=fixed;" vertex="1" parent="A4NV4GKSswzCM_kaXUeC-29">
          <mxGeometry x="130" y="50" width="80" height="80" as="geometry" />
        </mxCell>
        <mxCell id="A4NV4GKSswzCM_kaXUeC-34" value="" style="swimlane;startSize=0;" vertex="1" parent="1">
          <mxGeometry x="100" y="1200" width="660" height="170" as="geometry">
            <mxRectangle width="50" height="40" as="alternateBounds" />
          </mxGeometry>
        </mxCell>
        <mxCell id="A4NV4GKSswzCM_kaXUeC-35" value="RS485" style="whiteSpace=wrap;html=1;aspect=fixed;" vertex="1" parent="A4NV4GKSswzCM_kaXUeC-34">
          <mxGeometry x="200" y="35" width="80" height="80" as="geometry" />
        </mxCell>
        <mxCell id="A4NV4GKSswzCM_kaXUeC-33" value="Power" style="whiteSpace=wrap;html=1;aspect=fixed;" vertex="1" parent="A4NV4GKSswzCM_kaXUeC-34">
          <mxGeometry x="540" y="35" width="80" height="80" as="geometry" />
        </mxCell>
        <mxCell id="A4NV4GKSswzCM_kaXUeC-31" value="FT200" style="whiteSpace=wrap;html=1;aspect=fixed;" vertex="1" parent="A4NV4GKSswzCM_kaXUeC-34">
          <mxGeometry x="370" y="35" width="80" height="80" as="geometry" />
        </mxCell>
        <mxCell id="A4NV4GKSswzCM_kaXUeC-32" value="UltraSonic&lt;div&gt;Sensor&lt;/div&gt;" style="whiteSpace=wrap;html=1;aspect=fixed;" vertex="1" parent="A4NV4GKSswzCM_kaXUeC-34">
          <mxGeometry x="30" y="35" width="80" height="80" as="geometry" />
        </mxCell>
        <mxCell id="A4NV4GKSswzCM_kaXUeC-37" value="" style="endArrow=classic;html=1;rounded=0;entryX=0.038;entryY=0.163;entryDx=0;entryDy=0;exitX=1.025;exitY=0.175;exitDx=0;exitDy=0;exitPerimeter=0;entryPerimeter=0;" edge="1" parent="A4NV4GKSswzCM_kaXUeC-34">
          <mxGeometry width="50" height="50" relative="1" as="geometry">
            <mxPoint x="112" y="61" as="sourcePoint" />
            <mxPoint x="203.03999999999996" y="60.039999999999964" as="targetPoint" />
          </mxGeometry>
        </mxCell>
        <mxCell id="A4NV4GKSswzCM_kaXUeC-39" value="" style="endArrow=classic;html=1;rounded=0;exitX=0;exitY=0.5;exitDx=0;exitDy=0;entryX=1;entryY=0.5;entryDx=0;entryDy=0;" edge="1" parent="A4NV4GKSswzCM_kaXUeC-34">
          <mxGeometry width="50" height="50" relative="1" as="geometry">
            <mxPoint x="200" y="91" as="sourcePoint" />
            <mxPoint x="110" y="91" as="targetPoint" />
          </mxGeometry>
        </mxCell>
        <mxCell id="A4NV4GKSswzCM_kaXUeC-40" value="" style="endArrow=none;html=1;rounded=0;entryX=0;entryY=0.75;entryDx=0;entryDy=0;exitX=1;exitY=0.75;exitDx=0;exitDy=0;fillColor=#00CC00;strokeColor=#00CC00;" edge="1" parent="A4NV4GKSswzCM_kaXUeC-34">
          <mxGeometry width="50" height="50" relative="1" as="geometry">
            <mxPoint x="110" y="110" as="sourcePoint" />
            <mxPoint x="200" y="110" as="targetPoint" />
            <Array as="points" />
          </mxGeometry>
        </mxCell>
        <mxCell id="A4NV4GKSswzCM_kaXUeC-45" value="" style="endArrow=classic;html=1;rounded=0;entryX=0.038;entryY=0.163;entryDx=0;entryDy=0;exitX=1.025;exitY=0.175;exitDx=0;exitDy=0;exitPerimeter=0;entryPerimeter=0;" edge="1" parent="A4NV4GKSswzCM_kaXUeC-34">
          <mxGeometry width="50" height="50" relative="1" as="geometry">
            <mxPoint x="278.96" y="60" as="sourcePoint" />
            <mxPoint x="369.99999999999994" y="59.039999999999964" as="targetPoint" />
          </mxGeometry>
        </mxCell>
        <mxCell id="A4NV4GKSswzCM_kaXUeC-46" value="" style="endArrow=classic;html=1;rounded=0;exitX=0;exitY=0.5;exitDx=0;exitDy=0;entryX=1;entryY=0.5;entryDx=0;entryDy=0;" edge="1" parent="A4NV4GKSswzCM_kaXUeC-34">
          <mxGeometry width="50" height="50" relative="1" as="geometry">
            <mxPoint x="370" y="92" as="sourcePoint" />
            <mxPoint x="280" y="92" as="targetPoint" />
          </mxGeometry>
        </mxCell>
        <mxCell id="A4NV4GKSswzCM_kaXUeC-42" value="" style="endArrow=none;html=1;rounded=0;entryX=0;entryY=0.75;entryDx=0;entryDy=0;exitX=1;exitY=0.75;exitDx=0;exitDy=0;strokeColor=#FF9999;" edge="1" parent="A4NV4GKSswzCM_kaXUeC-34">
          <mxGeometry width="50" height="50" relative="1" as="geometry">
            <mxPoint x="110" y="40" as="sourcePoint" />
            <mxPoint x="200" y="40" as="targetPoint" />
            <Array as="points">
              <mxPoint x="160" y="40" />
            </Array>
          </mxGeometry>
        </mxCell>
        <mxCell id="A4NV4GKSswzCM_kaXUeC-44" value="" style="endArrow=none;html=1;rounded=0;entryX=0;entryY=0.75;entryDx=0;entryDy=0;exitX=1;exitY=0.75;exitDx=0;exitDy=0;fillColor=#00CC00;strokeColor=#00CC00;" edge="1" parent="1">
          <mxGeometry width="50" height="50" relative="1" as="geometry">
            <mxPoint x="550" y="1305" as="sourcePoint" />
            <mxPoint x="640" y="1305" as="targetPoint" />
            <Array as="points" />
          </mxGeometry>
        </mxCell>
        <mxCell id="A4NV4GKSswzCM_kaXUeC-47" value="" style="endArrow=none;html=1;rounded=0;entryX=0;entryY=0.75;entryDx=0;entryDy=0;exitX=1;exitY=0.75;exitDx=0;exitDy=0;strokeColor=#FF9999;" edge="1" parent="1">
          <mxGeometry width="50" height="50" relative="1" as="geometry">
            <mxPoint x="552" y="1250" as="sourcePoint" />
            <mxPoint x="642" y="1250" as="targetPoint" />
            <Array as="points">
              <mxPoint x="602" y="1250" />
            </Array>
          </mxGeometry>
        </mxCell>
      </root>
    </mxGraphModel>
  </diagram>
</mxfile>
